<svg id="flat" height="512" viewBox="0 0 512 512" width="512" xmlns="http://www.w3.org/2000/svg"><path d="m128 248-53.07215 46.43813a32 32 0 0 0 -10.92785 24.08245v65.47942l-40 40v64h128l40-40v-200z" fill="#ffceb6"/><path d="m128 64h320v384h-320z" fill="#c78640"/><path d="m160 96h256v320h-256z" fill="#e0edff"/><path d="m256 224h48v16h-48z" fill="#c5dafa"/><path d="m200 344h32v32h-32z" fill="#aec1e8"/><path d="m200 280h32v32h-32z" fill="#aec1e8"/><path d="m200 216h32v32h-32z" fill="#aec1e8"/><path d="m200 152h32v32h-32z" fill="#aec1e8"/><path d="m232 384h-32a8.00008 8.00008 0 0 1 -8-8v-32a8.00008 8.00008 0 0 1 8-8h32a8.00008 8.00008 0 0 1 8 8v32a8.00008 8.00008 0 0 1 -8 8zm-24-16h16v-16h-16z" fill="#c5dafa"/><path d="m312 304 56 56v24h120v-39.667a136 136 0 0 0 -39.83348-96.16652l-56.16652-56.16648h-63.43146a40 40 0 0 0 -28.28427 11.71573l-34.91169 34.91169a32 32 0 0 0 -9.37258 22.62741v42.74517z" fill="#ffceb6"/><path d="m424 182.63a22.61572 22.61572 0 0 1 -6.62988 16l-145.37012 145.37-32-32 145.37012-145.37a22.62988 22.62988 0 0 1 38.62988 16z" fill="#ef5e3b"/><path d="m240 312-16 48 48-16z" fill="#ffceb6"/><path d="m368 384h120v112h-120z" fill="#548aff"/><path d="m96 344 41.37259-41.37259a22.6274 22.6274 0 0 1 16-6.62741 22.62739 22.62739 0 0 1 22.62741 22.62739 22.6274 22.6274 0 0 1 -6.62741 16l-41.37259 41.37261v14.7018a35.09937 35.09937 0 0 1 -24 33.2982h-8z" fill="#ffceb6"/><path d="m416 256h-66.74517a32 32 0 0 0 -22.62741 9.37258l-32 32a22.6274 22.6274 0 0 0 -6.62741 16 22.62739 22.62739 0 0 0 22.62738 22.62742 22.6274 22.6274 0 0 0 16-6.62741l25.37261-25.37259a53.89622 53.89622 0 0 0 44.84436 24h19.15564z" fill="#ffceb6"/><path d="m359.029 185.373h33.941v45.255h-33.941z" fill="#ffb401" transform="matrix(.707 -.707 .707 .707 -36.95 326.794)"/><path d="m200 64 24 56h128l24-56z" fill="#ffc431"/><path d="m256 64 10.05776-25.14439a23.63248 23.63248 0 0 1 21.94224-14.85561 23.63248 23.63248 0 0 1 21.94222 14.85561l10.05778 25.14439z" fill="#ffb401"/><g fill="#c5dafa"><path d="m232 192h-32a8.00008 8.00008 0 0 1 -8-8v-32a8.00008 8.00008 0 0 1 8-8h32a8.00008 8.00008 0 0 1 8 8v32a8.00008 8.00008 0 0 1 -8 8zm-24-16h16v-16h-16z"/><path d="m232 256h-32a8.00008 8.00008 0 0 1 -8-8v-32a8.00008 8.00008 0 0 1 8-8h32a8.00008 8.00008 0 0 1 8 8v32a8.00008 8.00008 0 0 1 -8 8zm-24-16h16v-16h-16z"/><path d="m232 320h-32a8.00008 8.00008 0 0 1 -8-8v-32a8.00008 8.00008 0 0 1 8-8h32a8.00008 8.00008 0 0 1 8 8v32a8.00008 8.00008 0 0 1 -8 8zm-24-16h16v-16h-16z"/><path d="m288 160h48v16h-48z"/><path d="m256 160h16v16h-16z"/><path d="m304 352h32v16h-32z"/><path d="m256 352h32v16h-32z"/></g><path d="m106.5293 431.58936-5.0586-15.17872a27.06458 27.06458 0 0 0 18.5293-25.70898v-14.70166a8.00035 8.00035 0 0 1 2.34277-5.65674l41.37305-41.37256a14.62724 14.62724 0 1 0 -20.68555-20.68652l-41.373 41.37256-11.3145-11.31348 41.37305-41.37256a30.6276 30.6276 0 0 1 43.31445 43.31348l-39.03027 39.02982v11.3877a43.0426 43.0426 0 0 1 -29.4707 40.88766z" fill="#ffbfa1"/><path d="m310.627 344a30.62794 30.62794 0 0 1 -21.65722-52.28418l32-32a39.74371 39.74371 0 0 1 28.2851-11.71582h58.74512v16h-58.74512a23.84779 23.84779 0 0 0 -16.97168 7.02979l-31.999 31.99951a14.62724 14.62724 0 1 0 20.68555 20.68652l25.373-25.37256a8.00026 8.00026 0 0 1 12.31348 1.21924 45.80548 45.80548 0 0 0 38.1885 20.4375h19.15527v16h-19.15527a61.75463 61.75463 0 0 1 -45.55073-19.98l-19.00982 19.0093a30.426 30.426 0 0 1 -21.65718 8.9707z" fill="#ffbfa1"/><path d="m424 182.63a22.61572 22.61572 0 0 1 -6.62988 16l-13.37012 13.37-32-32 13.37012-13.37a22.62988 22.62988 0 0 1 38.62988 16z" fill="#ffc431"/></svg>